<?xml version="1.0" encoding="UTF-8"?>
<svg id="Layer_1" data-name="Layer 1" xmlns="http://www.w3.org/2000/svg" viewBox="0 0 360 144">
  <defs>
    <style>
      .cls-1 {
        fill: #80cbe9;
      }

      .cls-1, .cls-2, .cls-3, .cls-4, .cls-5, .cls-6 {
        stroke-width: 0px;
      }

      .cls-2 {
        fill: #0098d3;
      }

      .cls-3 {
        fill: #bfe5f4;
      }

      .cls-4 {
        fill: #fff;
      }

      .cls-5 {
        fill: #d9f0f8;
      }

      .cls-6 {
        fill: #40b2de;
      }
    </style>
  </defs>
  <g>
    <path class="cls-4" d="M38.98,112.49c0,.55-.05,1.08-.14,1.59-.09.51-.28.97-.57,1.38-.28.41-.7.73-1.24.98-.54.24-1.26.37-2.15.37-.66,0-1.23-.1-1.69-.31-.46-.2-.85-.48-1.15-.84-.3-.35-.52-.78-.66-1.26s-.21-1.02-.21-1.59v-.66h2.18v.65c0,.71.12,1.26.36,1.65.24.39.69.58,1.35.58.35,0,.64-.05.86-.16.23-.11.41-.26.54-.46.13-.2.22-.46.27-.76.05-.3.07-.65.07-1.03v-8.56h2.18v8.44Z"/>
    <path class="cls-4" d="M45.37,116.74c-.72,0-1.36-.12-1.92-.36-.56-.24-1.04-.57-1.43-.99-.39-.42-.69-.92-.89-1.5-.2-.58-.3-1.22-.3-1.92s.1-1.32.3-1.9c.2-.58.5-1.08.89-1.5.39-.42.87-.75,1.43-.99.56-.24,1.2-.36,1.92-.36s1.36.12,1.92.36c.56.24,1.04.57,1.43.99.39.42.69.92.89,1.5.2.58.3,1.22.3,1.9s-.1,1.34-.3,1.92c-.2.58-.5,1.08-.89,1.5-.39.42-.87.75-1.43.99-.56.24-1.2.36-1.92.36ZM45.37,115.17c.44,0,.82-.09,1.15-.28.32-.19.59-.43.8-.73.21-.3.36-.64.46-1.02.1-.38.15-.76.15-1.16s-.05-.77-.15-1.15c-.1-.38-.25-.72-.46-1.02-.21-.3-.48-.54-.8-.72-.33-.19-.71-.28-1.15-.28s-.82.09-1.15.28-.59.43-.8.72c-.21.3-.36.64-.46,1.02-.1.38-.15.77-.15,1.15s.05.78.15,1.16c.1.38.25.72.46,1.02.21.3.48.55.8.73s.71.28,1.15.28Z"/>
    <path class="cls-4" d="M51.58,104.05h1.99v1.88h-1.99v-1.88ZM51.58,107.48h1.99v9.01h-1.99v-9.01Z"/>
    <path class="cls-4" d="M55.65,107.48h1.88v1.32l.04.04c.3-.5.7-.89,1.18-1.18s1.03-.43,1.62-.43c.99,0,1.77.26,2.33.77.57.51.85,1.28.85,2.3v6.19h-1.99v-5.67c-.02-.71-.17-1.22-.45-1.54-.28-.32-.71-.48-1.31-.48-.34,0-.64.06-.91.18-.27.12-.49.29-.68.51s-.33.47-.44.76c-.1.29-.16.6-.16.92v5.32h-1.99v-9.01Z"/>
    <path class="cls-4" d="M64.67,107.48h1.5v-2.7h1.99v2.7h1.79v1.48h-1.79v4.81c0,.21,0,.39.03.54.02.15.06.28.12.38.06.11.16.18.29.24.13.05.3.08.52.08.14,0,.28,0,.42,0,.14,0,.28-.03.42-.06v1.53c-.22.02-.44.05-.64.07-.21.02-.42.04-.64.04-.52,0-.94-.05-1.26-.15s-.57-.24-.75-.44c-.18-.19-.3-.43-.37-.72-.06-.29-.1-.62-.11-.99v-5.32h-1.5v-1.48Z"/>
    <path class="cls-4" d="M79.83,104.05h2.32l4.79,12.45h-2.33l-1.17-3.29h-4.96l-1.17,3.29h-2.25l4.77-12.45ZM79.06,111.55h3.8l-1.86-5.35h-.05l-1.88,5.35Z"/>
    <path class="cls-4" d="M88.15,104.05h2.18v12.45h-2.18v-12.45Z"/>
    <path class="cls-4" d="M96.65,104.05h10.07v1.88h-3.95v10.57h-2.18v-10.57h-3.94v-1.88Z"/>
    <path class="cls-4" d="M107.93,112.51c0,.35.05.69.15,1.01.1.33.25.61.44.85.2.24.45.44.75.58.3.15.66.22,1.08.22.58,0,1.05-.12,1.4-.38.35-.25.62-.62.79-1.12h1.88c-.1.49-.28.92-.54,1.31-.26.38-.56.71-.92.97-.36.26-.76.46-1.21.59-.45.13-.91.2-1.4.2-.71,0-1.34-.12-1.88-.35-.55-.23-1.01-.56-1.38-.98-.38-.42-.66-.92-.85-1.5-.19-.58-.29-1.22-.29-1.92,0-.64.1-1.25.3-1.82.2-.58.49-1.08.87-1.52.38-.44.83-.78,1.37-1.04.53-.26,1.14-.38,1.81-.38.71,0,1.34.15,1.91.44.56.3,1.03.69,1.4,1.18.37.49.64,1.05.81,1.68s.21,1.29.13,1.96h-6.62ZM112.57,111.2c-.02-.31-.09-.62-.2-.91-.11-.29-.26-.54-.45-.76-.19-.21-.42-.39-.7-.52s-.58-.2-.91-.2-.66.06-.95.18c-.28.12-.53.29-.73.51-.2.21-.37.47-.49.76-.12.29-.19.6-.2.94h4.63Z"/>
    <path class="cls-4" d="M117.59,113.6c.06.58.28.99.66,1.22.38.23.84.35,1.38.35.19,0,.4-.01.64-.04s.46-.08.67-.17c.21-.08.38-.2.51-.36.13-.16.19-.36.18-.62-.01-.26-.1-.46-.28-.63-.17-.16-.4-.29-.67-.39-.27-.1-.58-.18-.93-.25-.35-.07-.7-.15-1.06-.23-.37-.08-.73-.18-1.07-.3-.34-.12-.65-.27-.92-.47s-.49-.45-.65-.76c-.16-.31-.24-.69-.24-1.14,0-.49.12-.9.36-1.23.24-.33.54-.6.91-.8s.77-.35,1.22-.43c.45-.08.87-.12,1.28-.12.46,0,.91.05,1.33.15.42.1.81.26,1.15.48.34.22.63.51.85.86.23.36.37.78.43,1.28h-2.07c-.09-.48-.31-.8-.65-.96s-.73-.24-1.18-.24c-.14,0-.3.01-.5.04-.19.02-.37.07-.54.13s-.31.16-.43.28c-.12.12-.17.28-.17.48,0,.24.08.44.25.59s.39.28.66.37c.27.1.58.18.93.25.35.07.71.15,1.08.23.36.08.71.18,1.06.3.35.12.66.27.93.47.27.2.49.45.66.75.17.3.25.67.25,1.12,0,.53-.12.99-.37,1.36s-.56.67-.95.91c-.39.23-.82.4-1.3.51-.48.11-.95.16-1.41.16-.57,0-1.09-.06-1.58-.19-.48-.13-.9-.32-1.25-.58-.35-.26-.63-.59-.84-.98-.2-.39-.31-.85-.32-1.39h1.99Z"/>
    <path class="cls-4" d="M124.27,107.48h1.5v-2.7h1.99v2.7h1.79v1.48h-1.79v4.81c0,.21,0,.39.03.54.02.15.06.28.12.38.06.11.16.18.29.24.13.05.3.08.52.08.14,0,.28,0,.42,0,.14,0,.28-.03.42-.06v1.53c-.22.02-.44.05-.64.07-.21.02-.42.04-.64.04-.52,0-.94-.05-1.26-.15s-.57-.24-.75-.44c-.18-.19-.3-.43-.37-.72-.06-.29-.1-.62-.11-.99v-5.32h-1.5v-1.48Z"/>
    <path class="cls-4" d="M136.09,104.05h2.18v12.45h-2.18v-12.45Z"/>
    <path class="cls-4" d="M140.6,107.48h1.88v1.32l.04.04c.3-.5.7-.89,1.18-1.18.49-.28,1.03-.43,1.62-.43.99,0,1.77.26,2.33.77.57.51.85,1.28.85,2.3v6.19h-1.99v-5.67c-.02-.71-.17-1.22-.45-1.54-.28-.32-.71-.48-1.31-.48-.34,0-.64.06-.91.18-.27.12-.49.29-.68.51s-.33.47-.44.76c-.1.29-.16.6-.16.92v5.32h-1.99v-9.01Z"/>
    <path class="cls-4" d="M149.63,107.48h1.48v-.75c0-.57.07-1.03.21-1.39.14-.35.32-.63.56-.82.23-.19.5-.32.79-.38.3-.06.61-.1.93-.1.64,0,1.1.04,1.39.12v1.55c-.13-.04-.26-.06-.41-.08-.14-.02-.32-.03-.51-.03-.27,0-.5.06-.69.19-.19.13-.29.38-.29.75v.92h1.69v1.48h-1.69v7.53h-1.99v-7.53h-1.48v-1.48Z"/>
    <path class="cls-4" d="M155.99,107.48h1.86v1.74h.04c.06-.24.17-.48.34-.72.17-.23.37-.44.61-.64.24-.19.5-.35.79-.46.29-.12.59-.17.89-.17.23,0,.39,0,.48.02s.18.02.27.03v1.92c-.14-.02-.28-.04-.43-.06s-.29-.03-.43-.03c-.34,0-.65.07-.95.2-.3.13-.55.33-.77.59-.22.26-.4.58-.52.97-.13.38-.19.83-.19,1.32v4.29h-1.99v-9.01Z"/>
    <path class="cls-4" d="M169.86,114.49c0,.24.03.42.1.52.06.11.19.16.37.16h.21c.08,0,.17-.01.28-.04v1.38c-.07.02-.16.05-.27.08-.11.03-.22.06-.34.08-.12.02-.23.04-.35.05-.12.01-.22.02-.3.02-.41,0-.74-.08-1.01-.24s-.44-.45-.52-.85c-.4.38-.88.66-1.45.84-.57.17-1.13.26-1.66.26-.41,0-.8-.06-1.17-.17s-.7-.27-.98-.49-.51-.49-.68-.82c-.17-.33-.25-.72-.25-1.16,0-.56.1-1.01.3-1.36.2-.35.47-.62.8-.82s.7-.34,1.11-.43.83-.15,1.25-.2c.36-.07.7-.12,1.03-.15.32-.03.61-.08.86-.15.25-.07.45-.18.59-.32.14-.14.22-.36.22-.65,0-.26-.06-.46-.18-.63-.12-.16-.27-.29-.45-.38s-.38-.14-.6-.17c-.22-.03-.43-.04-.63-.04-.56,0-1.02.12-1.38.35-.36.23-.56.59-.61,1.08h-1.99c.03-.58.17-1.06.42-1.45.24-.38.55-.69.93-.92.38-.23.8-.4,1.28-.49.48-.09.96-.14,1.46-.14.44,0,.88.05,1.31.14.43.09.82.24,1.16.45s.62.48.83.81c.21.33.31.74.31,1.21v4.64ZM167.87,111.98c-.3.2-.67.32-1.11.36-.44.04-.88.1-1.32.18-.21.04-.41.09-.61.15-.2.06-.37.15-.52.26s-.27.26-.36.44c-.09.18-.13.4-.13.65,0,.22.06.41.19.56.13.15.28.27.46.36.18.09.38.15.59.18.21.04.41.05.58.05.22,0,.46-.03.71-.09s.5-.16.72-.3c.23-.14.42-.32.57-.53s.23-.48.23-.79v-1.48Z"/>
    <path class="cls-4" d="M173.61,113.6c.06.58.28.99.66,1.22.38.23.84.35,1.38.35.19,0,.4-.01.64-.04s.46-.08.67-.17c.21-.08.38-.2.51-.36s.19-.36.18-.62c-.01-.26-.1-.46-.28-.63-.17-.16-.4-.29-.67-.39-.27-.1-.58-.18-.93-.25-.35-.07-.7-.15-1.06-.23-.37-.08-.73-.18-1.07-.3-.34-.12-.65-.27-.92-.47s-.49-.45-.65-.76c-.16-.31-.24-.69-.24-1.14,0-.49.12-.9.36-1.23.24-.33.54-.6.9-.8.37-.2.77-.35,1.22-.43.45-.08.87-.12,1.28-.12.46,0,.91.05,1.33.15.42.1.81.26,1.15.48.34.22.63.51.85.86.23.36.37.78.43,1.28h-2.07c-.09-.48-.31-.8-.65-.96-.34-.16-.73-.24-1.18-.24-.14,0-.3.01-.5.04s-.37.07-.54.13c-.17.06-.31.16-.43.28-.12.12-.17.28-.17.48,0,.24.08.44.25.59.17.15.39.28.66.37.27.1.58.18.93.25.35.07.71.15,1.08.23.36.08.71.18,1.06.3.35.12.66.27.93.47.27.2.49.45.66.75.17.3.25.67.25,1.12,0,.53-.12.99-.37,1.36-.24.37-.56.67-.95.91-.39.23-.82.4-1.3.51-.48.11-.95.16-1.41.16-.57,0-1.09-.06-1.58-.19-.48-.13-.9-.32-1.25-.58-.35-.26-.63-.59-.84-.98-.2-.39-.31-.85-.32-1.39h1.99Z"/>
    <path class="cls-4" d="M180.29,107.48h1.5v-2.7h1.98v2.7h1.79v1.48h-1.79v4.81c0,.21,0,.39.03.54.02.15.06.28.12.38.06.11.16.18.29.24.13.05.3.08.52.08.14,0,.28,0,.42,0,.14,0,.28-.03.42-.06v1.53c-.22.02-.44.05-.64.07-.21.02-.42.04-.64.04-.52,0-.94-.05-1.26-.15-.32-.1-.57-.24-.75-.44-.18-.19-.3-.43-.37-.72-.06-.29-.1-.62-.11-.99v-5.32h-1.5v-1.48Z"/>
    <path class="cls-4" d="M186.96,107.48h1.86v1.74h.04c.06-.24.17-.48.34-.72.17-.23.37-.44.61-.64.24-.19.5-.35.79-.46.29-.12.59-.17.89-.17.23,0,.39,0,.48.02s.18.02.27.03v1.92c-.14-.02-.28-.04-.43-.06-.15-.02-.29-.03-.43-.03-.34,0-.65.07-.95.2-.3.13-.55.33-.77.59-.22.26-.4.58-.52.97-.13.38-.19.83-.19,1.32v4.29h-1.98v-9.01Z"/>
    <path class="cls-4" d="M201.16,116.5h-1.95v-1.25h-.04c-.24.45-.61.82-1.09,1.09-.48.27-.97.41-1.47.41-1.18,0-2.04-.29-2.57-.88-.53-.59-.79-1.47-.79-2.66v-5.72h1.99v5.53c0,.79.15,1.35.45,1.67s.73.49,1.27.49c.42,0,.77-.06,1.05-.19.28-.13.51-.3.68-.51s.3-.47.37-.78.11-.63.11-.98v-5.23h1.98v9.01Z"/>
    <path class="cls-4" d="M209.33,110.5c-.08-.56-.3-.98-.67-1.26-.37-.28-.83-.43-1.38-.43-.25,0-.53.04-.82.13-.29.09-.56.25-.8.49-.24.24-.45.57-.61.99s-.24.98-.24,1.66c0,.37.04.74.13,1.12s.23.7.42.99c.19.29.44.53.74.71.3.18.67.27,1.1.27.58,0,1.06-.18,1.44-.54.38-.36.61-.87.71-1.52h1.98c-.19,1.17-.63,2.07-1.33,2.69-.7.62-1.63.93-2.8.93-.71,0-1.33-.12-1.87-.36-.54-.24-1-.56-1.37-.98s-.65-.9-.84-1.47c-.19-.57-.29-1.19-.29-1.85s.09-1.31.28-1.9c.18-.59.46-1.11.84-1.54s.83-.78,1.38-1.03c.55-.25,1.2-.38,1.94-.38.52,0,1.02.07,1.49.2s.89.33,1.25.6c.37.27.66.6.9,1.01.23.41.37.89.42,1.45h-1.98Z"/>
    <path class="cls-4" d="M212.09,107.48h1.5v-2.7h1.98v2.7h1.79v1.48h-1.79v4.81c0,.21,0,.39.03.54.02.15.06.28.12.38.06.11.16.18.29.24.13.05.3.08.52.08.14,0,.28,0,.42,0,.14,0,.28-.03.42-.06v1.53c-.22.02-.44.05-.64.07-.21.02-.42.04-.64.04-.52,0-.94-.05-1.26-.15-.32-.1-.57-.24-.75-.44-.18-.19-.3-.43-.37-.72-.06-.29-.1-.62-.11-.99v-5.32h-1.5v-1.48Z"/>
    <path class="cls-4" d="M226.59,116.5h-1.95v-1.25h-.04c-.24.45-.61.82-1.09,1.09-.48.27-.97.41-1.47.41-1.18,0-2.04-.29-2.57-.88-.53-.59-.79-1.47-.79-2.66v-5.72h1.98v5.53c0,.79.15,1.35.45,1.67.3.33.73.49,1.27.49.42,0,.77-.06,1.05-.19.28-.13.5-.3.68-.51s.3-.47.37-.78.11-.63.11-.98v-5.23h1.99v9.01Z"/>
    <path class="cls-4" d="M228.65,107.48h1.86v1.74h.04c.06-.24.17-.48.34-.72.17-.23.37-.44.61-.64.24-.19.5-.35.79-.46.29-.12.59-.17.89-.17.23,0,.39,0,.48.02s.18.02.27.03v1.92c-.14-.02-.28-.04-.43-.06-.15-.02-.29-.03-.43-.03-.34,0-.65.07-.95.2-.3.13-.55.33-.77.59-.22.26-.4.58-.52.97-.13.38-.19.83-.19,1.32v4.29h-1.98v-9.01Z"/>
    <path class="cls-4" d="M236.43,112.51c0,.35.05.69.15,1.01.1.33.25.61.44.85.2.24.45.44.75.58s.66.22,1.08.22c.58,0,1.05-.12,1.4-.38.35-.25.62-.62.79-1.12h1.88c-.1.49-.28.92-.54,1.31-.26.38-.56.71-.92.97-.36.26-.76.46-1.21.59-.45.13-.91.2-1.4.2-.71,0-1.34-.12-1.88-.35-.55-.23-1.01-.56-1.38-.98-.38-.42-.66-.92-.85-1.5-.19-.58-.29-1.22-.29-1.92,0-.64.1-1.25.3-1.82.2-.58.49-1.08.87-1.52.38-.44.83-.78,1.37-1.04.53-.26,1.14-.38,1.81-.38.71,0,1.34.15,1.91.44.56.3,1.03.69,1.4,1.18.37.49.64,1.05.81,1.68.17.63.21,1.29.13,1.96h-6.62ZM241.06,111.2c-.02-.31-.09-.62-.2-.91-.11-.29-.26-.54-.45-.76-.19-.21-.42-.39-.7-.52s-.58-.2-.91-.2-.66.06-.95.18c-.28.12-.53.29-.73.51s-.37.47-.49.76c-.12.29-.19.6-.2.94h4.63Z"/>
    <path class="cls-4" d="M258.08,108.01c-.09-.36-.22-.69-.38-.99s-.37-.56-.63-.78c-.26-.22-.56-.39-.9-.51-.34-.12-.74-.18-1.19-.18-.66,0-1.23.13-1.72.4-.48.27-.87.63-1.18,1.07-.3.45-.52.96-.67,1.53s-.22,1.15-.22,1.74.07,1.17.22,1.74c.15.57.37,1.08.67,1.53.3.45.69.8,1.18,1.07.48.27,1.05.4,1.72.4.49,0,.92-.08,1.29-.25.37-.17.69-.4.96-.7.27-.3.48-.64.63-1.04.15-.4.25-.82.3-1.27h2.13c-.05.74-.21,1.42-.48,2.04-.27.62-.64,1.15-1.11,1.6-.47.45-1.01.79-1.64,1.04-.63.24-1.32.37-2.07.37-.93,0-1.76-.17-2.5-.51-.74-.34-1.36-.81-1.87-1.4-.51-.59-.9-1.28-1.18-2.07-.27-.79-.41-1.63-.41-2.53s.14-1.72.41-2.51c.27-.79.66-1.48,1.18-2.07.51-.59,1.13-1.06,1.87-1.41.74-.35,1.57-.52,2.5-.52.7,0,1.35.1,1.97.29.61.19,1.16.47,1.63.84.47.37.85.81,1.14,1.33s.47,1.12.54,1.8h-2.18Z"/>
    <path class="cls-4" d="M269.41,114.49c0,.24.03.42.1.52.06.11.19.16.37.16h.21c.08,0,.17-.01.28-.04v1.38c-.07.02-.16.05-.27.08-.11.03-.22.06-.34.08-.12.02-.23.04-.35.05-.12.01-.22.02-.3.02-.41,0-.74-.08-1.01-.24-.27-.16-.44-.45-.52-.85-.4.38-.88.66-1.45.84-.58.17-1.13.26-1.66.26-.41,0-.8-.06-1.17-.17-.37-.11-.7-.27-.98-.49s-.51-.49-.68-.82c-.17-.33-.25-.72-.25-1.16,0-.56.1-1.01.3-1.36.2-.35.47-.62.8-.82.33-.2.7-.34,1.12-.43.41-.09.83-.15,1.24-.2.36-.07.7-.12,1.03-.15s.61-.08.86-.15c.25-.07.45-.18.59-.32.15-.14.22-.36.22-.65,0-.26-.06-.46-.18-.63s-.27-.29-.45-.38c-.18-.09-.38-.14-.6-.17-.22-.03-.43-.04-.63-.04-.56,0-1.02.12-1.38.35-.36.23-.56.59-.61,1.08h-1.99c.04-.58.17-1.06.42-1.45s.55-.69.93-.92c.38-.23.8-.4,1.28-.49.48-.09.96-.14,1.46-.14.44,0,.88.05,1.31.14.43.09.82.24,1.16.45.34.21.62.48.83.81.21.33.31.74.31,1.21v4.64ZM267.43,111.98c-.3.2-.67.32-1.11.36-.44.04-.88.1-1.32.18-.21.04-.41.09-.61.15s-.37.15-.52.26-.27.26-.36.44c-.09.18-.13.4-.13.65,0,.22.06.41.19.56.13.15.28.27.46.36.18.09.38.15.59.18.21.04.41.05.58.05.22,0,.46-.03.71-.09.25-.06.5-.16.72-.3s.42-.32.57-.53.23-.48.23-.79v-1.48Z"/>
    <path class="cls-4" d="M271.67,107.48h1.88v1.22h.04c.28-.52.67-.9,1.17-1.12s1.04-.34,1.62-.34c.71,0,1.33.13,1.85.38.53.25.97.59,1.32,1.03s.61.95.78,1.53c.17.58.26,1.2.26,1.87,0,.6-.08,1.19-.24,1.76-.16.57-.4,1.07-.71,1.51-.32.44-.72.78-1.21,1.05s-1.06.39-1.72.39c-.29,0-.58-.03-.87-.08-.29-.05-.57-.14-.84-.25-.27-.12-.51-.26-.74-.44-.23-.18-.42-.39-.57-.64h-.03v4.5h-1.99v-12.34ZM278.6,112c0-.41-.05-.8-.16-1.19-.1-.38-.26-.72-.47-1.02-.21-.3-.47-.53-.78-.72-.31-.18-.67-.27-1.08-.27-.84,0-1.47.29-1.89.87-.42.58-.64,1.35-.64,2.32,0,.45.06.88.17,1.26.11.39.28.72.5,1,.22.28.49.5.79.66.31.16.66.24,1.07.24.45,0,.84-.09,1.15-.28s.57-.43.78-.72.35-.63.44-1.01.13-.76.13-1.16Z"/>
    <path class="cls-4" d="M289.74,114.49c0,.24.03.42.1.52.06.11.19.16.37.16h.21c.08,0,.17-.01.28-.04v1.38c-.07.02-.16.05-.27.08-.11.03-.22.06-.34.08-.12.02-.23.04-.35.05-.12.01-.22.02-.3.02-.41,0-.74-.08-1.01-.24-.27-.16-.44-.45-.52-.85-.4.38-.88.66-1.45.84-.58.17-1.13.26-1.66.26-.41,0-.8-.06-1.17-.17-.37-.11-.7-.27-.98-.49s-.51-.49-.68-.82c-.17-.33-.25-.72-.25-1.16,0-.56.1-1.01.3-1.36.2-.35.47-.62.8-.82.33-.2.7-.34,1.12-.43.41-.09.83-.15,1.24-.2.36-.07.7-.12,1.03-.15s.61-.08.86-.15c.25-.07.45-.18.59-.32.15-.14.22-.36.22-.65,0-.26-.06-.46-.18-.63s-.27-.29-.45-.38c-.18-.09-.38-.14-.6-.17-.22-.03-.43-.04-.63-.04-.56,0-1.02.12-1.38.35-.36.23-.56.59-.61,1.08h-1.99c.04-.58.17-1.06.42-1.45s.55-.69.93-.92c.38-.23.8-.4,1.28-.49.48-.09.96-.14,1.46-.14.44,0,.88.05,1.31.14.43.09.82.24,1.16.45.34.21.62.48.83.81.21.33.31.74.31,1.21v4.64ZM287.75,111.98c-.3.2-.67.32-1.11.36-.44.04-.88.1-1.32.18-.21.04-.41.09-.61.15s-.37.15-.52.26-.27.26-.36.44c-.09.18-.13.4-.13.65,0,.22.06.41.19.56.13.15.28.27.46.36.18.09.38.15.59.18.21.04.41.05.58.05.22,0,.46-.03.71-.09.25-.06.5-.16.72-.3s.42-.32.57-.53.23-.48.23-.79v-1.48Z"/>
    <path class="cls-4" d="M291.99,104.05h1.99v4.6h.03c.14-.22.31-.42.51-.59s.42-.32.65-.44.49-.21.75-.28c.26-.06.52-.1.78-.1.71,0,1.33.13,1.85.38.53.25.97.59,1.32,1.03s.61.95.78,1.53c.17.58.26,1.2.26,1.87,0,.6-.08,1.19-.24,1.76-.16.57-.4,1.07-.71,1.51-.32.44-.72.78-1.21,1.05s-1.06.39-1.72.39c-.3,0-.61-.02-.91-.06-.31-.04-.6-.12-.88-.23-.28-.12-.53-.27-.76-.45s-.42-.43-.57-.73h-.04v1.24h-1.88v-12.45ZM298.92,112c0-.41-.05-.8-.16-1.19-.1-.38-.26-.72-.47-1.02-.21-.3-.47-.53-.78-.72-.31-.18-.67-.27-1.08-.27-.84,0-1.47.29-1.89.87-.42.58-.64,1.35-.64,2.32,0,.45.06.88.17,1.26.11.39.28.72.5,1,.22.28.49.5.79.66.31.16.66.24,1.07.24.45,0,.84-.09,1.15-.28s.57-.43.78-.72.35-.63.44-1.01.13-.76.13-1.16Z"/>
    <path class="cls-4" d="M302.59,104.05h1.99v1.88h-1.99v-1.88ZM302.59,107.48h1.99v9.01h-1.99v-9.01Z"/>
    <path class="cls-4" d="M306.69,104.05h1.99v12.45h-1.99v-12.45Z"/>
    <path class="cls-4" d="M310.79,104.05h1.99v1.88h-1.99v-1.88ZM310.79,107.48h1.99v9.01h-1.99v-9.01Z"/>
    <path class="cls-4" d="M314,107.48h1.5v-2.7h1.98v2.7h1.79v1.48h-1.79v4.81c0,.21,0,.39.03.54.02.15.06.28.12.38.06.11.16.18.29.24.13.05.3.08.52.08.14,0,.28,0,.42,0,.14,0,.28-.03.42-.06v1.53c-.22.02-.44.05-.64.07-.21.02-.42.04-.64.04-.52,0-.94-.05-1.26-.15-.32-.1-.57-.24-.75-.44-.18-.19-.3-.43-.37-.72-.06-.29-.1-.62-.11-.99v-5.32h-1.5v-1.48Z"/>
    <path class="cls-4" d="M320.1,107.48h2.18l2.35,6.73h.04l2.28-6.73h2.07l-3.5,9.5c-.16.41-.32.8-.48,1.17-.16.37-.35.7-.57.99s-.51.51-.84.68c-.34.17-.77.25-1.29.25-.46,0-.92-.04-1.38-.1v-1.67c.16.02.32.05.47.08.15.03.31.04.47.04.23,0,.42-.03.57-.09s.28-.14.37-.25.18-.24.25-.39c.07-.15.13-.33.19-.52l.23-.7-3.41-8.98Z"/>
  </g>
  <g>
    <path class="cls-5" d="M101.08,61.91l-19.35.29c-.1-6.92-4.69-12.71-10.94-14.66l5.69-18.47c14.73,4.54,24.37,17.4,24.61,32.84Z"/>
    <path class="cls-2" d="M53.4,53.43l-15.74-11.08c8.86-12.61,24.08-17.82,38.8-13.27l-5.69,18.47c-1.55-.49-3.19-.74-4.89-.71-5.17.08-9.72,2.66-12.49,6.59Z"/>
    <path class="cls-6" d="M38.29,83.38c-9.25-12.34-9.5-28.42-.62-41.04l15.74,11.08c-1.84,2.61-2.91,5.81-2.86,9.25s1.22,6.6,3.14,9.15l-15.39,11.56Z"/>
    <path class="cls-1" d="M38.29,83.38l15.39-11.56c2.89,3.84,7.52,6.29,12.69,6.21,1.7-.03,3.33-.33,4.86-.86l6.24,18.3c-14.58,4.99-29.95.24-39.19-12.09Z"/>
    <path class="cls-3" d="M77.48,95.48l-6.24-18.3c6.19-2.13,10.6-8.07,10.49-14.97l19.35-.29c.23,15.42-9.01,28.57-23.6,33.57Z"/>
  </g>
  <path class="cls-4" d="M245.02,31.17h-38.94c-.37,0-.67.3-.67.67v7.4c0,.37.3.67.67.67h14.68v53.12c0,.37.3.67.67.67h8.23c.37,0,.67-.3.67-.67v-53.12h14.68c.37,0,.67-.3.67-.67v-7.4c0-.37-.3-.67-.67-.67Z"/>
  <path class="cls-4" d="M254.13,31.17h8.23c.37,0,.67.3.67.67v61.2c0,.37-.3.67-.67.67h-8.23c-.37,0-.67-.3-.67-.67V31.85c0-.37.3-.67.67-.67Z"/>
  <path class="cls-4" d="M212.06,93.33c-.12.2-.34.32-.58.32h-9.08c-.26,0-.5-.15-.61-.39l-6.51-13.82h-20.68c-.61,0-1.02-.64-.76-1.19l3.34-7.16c.14-.29.43-.48.76-.48h13.17l-9.61-20.54-13.71,29.38-6.42,13.82c-.11.24-.34.39-.6.39h-9.09c-.23,0-.45-.12-.57-.32-.13-.2-.14-.45-.04-.65l11.16-22.83,18.66-38.18c.11-.22.34-.37.6-.37s.49.15.6.37l22.7,46.18,7.29,14.82c.1.21.09.46-.03.66Z"/>
  <path class="cls-4" d="M138.17,31.12c-.37,0-.67.3-.67.67v38.85c0,8.92-4.16,14.03-11.41,14.03-5.74,0-10.19-4.76-11.59-6.45-.25-.31-.72-.33-1-.05l-5.46,5.58c-.23.23-.26.59-.07.86,1.36,1.91,7.16,9.04,18.16,9.04,13.18,0,21.04-8.35,21.04-22.33V31.79c0-.37-.3-.67-.67-.67h-8.35Z"/>
  <path class="cls-4" d="M322.43,73.93c-.31-.21-.73-.14-.93.17-1.48,2.22-7.57,10.16-19.07,10.16-12.26,0-21.16-9.22-21.16-21.93s8.8-21.93,20.94-21.93c11.33,0,17.34,8.13,18.8,10.41.21.32.63.4.94.18l6.5-4.55c.29-.2.38-.6.19-.9-1.68-2.68-9.99-14.43-26.43-14.43-8.49,0-16.36,3.19-22.15,8.98-5.8,5.8-9,13.7-9,22.25,0,17.51,13.78,31.23,31.37,31.23,16.58,0,24.78-11.71,26.44-14.39.19-.3.1-.69-.19-.9l-6.24-4.34Z"/>
</svg>
